<svg width="14" height="14" viewBox="0 0 14 14" fill="none" xmlns="http://www.w3.org/2000/svg">
<path fill-rule="evenodd" clip-rule="evenodd" d="M4.0142 1.76396C4.52865 1.7229 5.01704 1.5206 5.40985 1.18586C6.32649 0.404701 7.67468 0.404701 8.59133 1.18586C8.98413 1.5206 9.47252 1.7229 9.98697 1.76396C11.1875 1.85976 12.1408 2.81308 12.2366 4.0136C12.2777 4.52806 12.48 5.01645 12.8147 5.40925C13.5959 6.32589 13.5959 7.67409 12.8147 8.59073C12.48 8.98353 12.2777 9.47193 12.2366 9.98638C12.1408 11.1869 11.1875 12.1402 9.98697 12.236C9.47252 12.2771 8.98413 12.4794 8.59133 12.8141C7.67468 13.5953 6.32649 13.5953 5.40985 12.8141C5.01704 12.4794 4.52865 12.2771 4.0142 12.236C2.81367 12.1402 1.86035 11.1869 1.76455 9.98638C1.7235 9.47193 1.5212 8.98353 1.18645 8.59073C0.405296 7.67409 0.405296 6.32589 1.18645 5.40925C1.5212 5.01645 1.7235 4.52806 1.76455 4.0136C1.86035 2.81308 2.81367 1.85976 4.0142 1.76396ZM9.96627 5.96568C10.2787 5.65326 10.2787 5.14673 9.96627 4.83431C9.65385 4.52189 9.14732 4.52189 8.8349 4.83431L6.20059 7.46862L5.16627 6.43431C4.85385 6.12189 4.34732 6.12189 4.0349 6.43431C3.72248 6.74673 3.72248 7.25326 4.0349 7.56568L5.6349 9.16568C5.94732 9.4781 6.45385 9.4781 6.76627 9.16568L9.96627 5.96568Z" fill="#272778"/>
</svg>
